<?xml version="1.0" encoding="utf-8" standalone="no"?>
<!DOCTYPE svg PUBLIC "-//W3C//DTD SVG 1.1//EN"
  "http://www.w3.org/Graphics/SVG/1.1/DTD/svg11.dtd">
<svg xmlns:xlink="http://www.w3.org/1999/xlink" width="460.8pt" height="345.6pt" viewBox="0 0 460.8 345.6" xmlns="http://www.w3.org/2000/svg" version="1.1">
 <metadata>
  <rdf:RDF xmlns:dc="http://purl.org/dc/elements/1.1/" xmlns:cc="http://creativecommons.org/ns#" xmlns:rdf="http://www.w3.org/1999/02/22-rdf-syntax-ns#">
   <cc:Work>
    <dc:type rdf:resource="http://purl.org/dc/dcmitype/StillImage"/>
    <dc:date>2023-06-04T06:35:45.483706</dc:date>
    <dc:format>image/svg+xml</dc:format>
    <dc:creator>
     <cc:Agent>
      <dc:title>Matplotlib v3.7.1, https://matplotlib.org/</dc:title>
     </cc:Agent>
    </dc:creator>
   </cc:Work>
  </rdf:RDF>
 </metadata>
 <defs>
  <style type="text/css">*{stroke-linejoin: round; stroke-linecap: butt}</style>
 </defs>
 <g id="figure_1">
  <g id="patch_1">
   <path d="M 0 345.6 
L 460.8 345.6 
L 460.8 0 
L 0 0 
z
" style="fill: #ffffff"/>
  </g>
  <g id="axes_1">
   <g id="patch_2">
    <path d="M 57.6 307.584 
L 414.72 307.584 
L 414.72 41.472 
L 57.6 41.472 
z
" style="fill: #ffffff"/>
   </g>
   <g id="PathCollection_1">
    <defs>
     <path id="mea6f9abe26" d="M 0 3 
C 0.795609 3 1.55874 2.683901 2.12132 2.12132 
C 2.683901 1.55874 3 0.795609 3 0 
C 3 -0.795609 2.683901 -1.55874 2.12132 -2.12132 
C 1.55874 -2.683901 0.795609 -3 0 -3 
C -0.795609 -3 -1.55874 -2.683901 -2.12132 -2.12132 
C -2.683901 -1.55874 -3 -0.795609 -3 0 
C -3 0.795609 -2.683901 1.55874 -2.12132 2.12132 
C -1.55874 2.683901 -0.795609 3 0 3 
z
" style="stroke: #ff0000"/>
    </defs>
    <g clip-path="url(#pfb9ead00b9)">
     <use xlink:href="#mea6f9abe26" x="73.832727" y="295.073511" style="fill: #ffff00; stroke: #ff0000"/>
     <use xlink:href="#mea6f9abe26" x="76.011617" y="290.693829" style="fill: #ffff00; stroke: #ff0000"/>
     <use xlink:href="#mea6f9abe26" x="78.190506" y="289.39587" style="fill: #ffff00; stroke: #ff0000"/>
     <use xlink:href="#mea6f9abe26" x="80.369396" y="291.010578" style="fill: #ffff00; stroke: #ff0000"/>
     <use xlink:href="#mea6f9abe26" x="82.548286" y="282.870444" style="fill: #ffff00; stroke: #ff0000"/>
     <use xlink:href="#mea6f9abe26" x="84.727175" y="286.873213" style="fill: #ffff00; stroke: #ff0000"/>
     <use xlink:href="#mea6f9abe26" x="86.906065" y="282.425169" style="fill: #ffff00; stroke: #ff0000"/>
     <use xlink:href="#mea6f9abe26" x="89.084954" y="280.987702" style="fill: #ffff00; stroke: #ff0000"/>
     <use xlink:href="#mea6f9abe26" x="91.263844" y="280.53066" style="fill: #ffff00; stroke: #ff0000"/>
     <use xlink:href="#mea6f9abe26" x="93.442733" y="281.061233" style="fill: #ffff00; stroke: #ff0000"/>
     <use xlink:href="#mea6f9abe26" x="95.621623" y="279.485336" style="fill: #ffff00; stroke: #ff0000"/>
     <use xlink:href="#mea6f9abe26" x="97.800513" y="275.435867" style="fill: #ffff00; stroke: #ff0000"/>
     <use xlink:href="#mea6f9abe26" x="99.979402" y="276.297019" style="fill: #ffff00; stroke: #ff0000"/>
     <use xlink:href="#mea6f9abe26" x="102.158292" y="274.14104" style="fill: #ffff00; stroke: #ff0000"/>
     <use xlink:href="#mea6f9abe26" x="104.337181" y="269.491256" style="fill: #ffff00; stroke: #ff0000"/>
     <use xlink:href="#mea6f9abe26" x="106.516071" y="267.573984" style="fill: #ffff00; stroke: #ff0000"/>
     <use xlink:href="#mea6f9abe26" x="108.69496" y="267.224535" style="fill: #ffff00; stroke: #ff0000"/>
     <use xlink:href="#mea6f9abe26" x="110.87385" y="268.34206" style="fill: #ffff00; stroke: #ff0000"/>
     <use xlink:href="#mea6f9abe26" x="113.052739" y="266.897176" style="fill: #ffff00; stroke: #ff0000"/>
     <use xlink:href="#mea6f9abe26" x="115.231629" y="260.21793" style="fill: #ffff00; stroke: #ff0000"/>
     <use xlink:href="#mea6f9abe26" x="117.410519" y="260.507187" style="fill: #ffff00; stroke: #ff0000"/>
     <use xlink:href="#mea6f9abe26" x="119.589408" y="258.086131" style="fill: #ffff00; stroke: #ff0000"/>
     <use xlink:href="#mea6f9abe26" x="121.768298" y="261.941304" style="fill: #ffff00; stroke: #ff0000"/>
     <use xlink:href="#mea6f9abe26" x="123.947187" y="251.297652" style="fill: #ffff00; stroke: #ff0000"/>
     <use xlink:href="#mea6f9abe26" x="126.126077" y="252.251172" style="fill: #ffff00; stroke: #ff0000"/>
     <use xlink:href="#mea6f9abe26" x="128.304966" y="243.440722" style="fill: #ffff00; stroke: #ff0000"/>
     <use xlink:href="#mea6f9abe26" x="130.483856" y="270.796486" style="fill: #ffff00; stroke: #ff0000"/>
     <use xlink:href="#mea6f9abe26" x="132.662746" y="270.665448" style="fill: #ffff00; stroke: #ff0000"/>
     <use xlink:href="#mea6f9abe26" x="134.841635" y="217.417372" style="fill: #ffff00; stroke: #ff0000"/>
     <use xlink:href="#mea6f9abe26" x="137.020525" y="214.061563" style="fill: #ffff00; stroke: #ff0000"/>
     <use xlink:href="#mea6f9abe26" x="139.199414" y="222.904738" style="fill: #ffff00; stroke: #ff0000"/>
     <use xlink:href="#mea6f9abe26" x="141.378304" y="220.963031" style="fill: #ffff00; stroke: #ff0000"/>
     <use xlink:href="#mea6f9abe26" x="143.557193" y="250.481044" style="fill: #ffff00; stroke: #ff0000"/>
     <use xlink:href="#mea6f9abe26" x="145.736083" y="250.371664" style="fill: #ffff00; stroke: #ff0000"/>
     <use xlink:href="#mea6f9abe26" x="147.914973" y="196.234625" style="fill: #ffff00; stroke: #ff0000"/>
     <use xlink:href="#mea6f9abe26" x="150.093862" y="223.73664" style="fill: #ffff00; stroke: #ff0000"/>
     <use xlink:href="#mea6f9abe26" x="152.272752" y="247.961317" style="fill: #ffff00; stroke: #ff0000"/>
     <use xlink:href="#mea6f9abe26" x="154.451641" y="258.72371" style="fill: #ffff00; stroke: #ff0000"/>
     <use xlink:href="#mea6f9abe26" x="156.630531" y="227.319202" style="fill: #ffff00; stroke: #ff0000"/>
     <use xlink:href="#mea6f9abe26" x="158.80942" y="179.13223" style="fill: #ffff00; stroke: #ff0000"/>
     <use xlink:href="#mea6f9abe26" x="160.98831" y="221.140035" style="fill: #ffff00; stroke: #ff0000"/>
     <use xlink:href="#mea6f9abe26" x="163.1672" y="250.859217" style="fill: #ffff00; stroke: #ff0000"/>
     <use xlink:href="#mea6f9abe26" x="165.346089" y="217.499892" style="fill: #ffff00; stroke: #ff0000"/>
     <use xlink:href="#mea6f9abe26" x="167.524979" y="190.130291" style="fill: #ffff00; stroke: #ff0000"/>
     <use xlink:href="#mea6f9abe26" x="169.703868" y="200.142152" style="fill: #ffff00; stroke: #ff0000"/>
     <use xlink:href="#mea6f9abe26" x="171.882758" y="214.227813" style="fill: #ffff00; stroke: #ff0000"/>
     <use xlink:href="#mea6f9abe26" x="174.061647" y="240.658601" style="fill: #ffff00; stroke: #ff0000"/>
     <use xlink:href="#mea6f9abe26" x="176.240537" y="226.803876" style="fill: #ffff00; stroke: #ff0000"/>
     <use xlink:href="#mea6f9abe26" x="178.419426" y="180.172367" style="fill: #ffff00; stroke: #ff0000"/>
     <use xlink:href="#mea6f9abe26" x="180.598316" y="168.294149" style="fill: #ffff00; stroke: #ff0000"/>
     <use xlink:href="#mea6f9abe26" x="182.777206" y="211.409201" style="fill: #ffff00; stroke: #ff0000"/>
     <use xlink:href="#mea6f9abe26" x="184.956095" y="220.745078" style="fill: #ffff00; stroke: #ff0000"/>
     <use xlink:href="#mea6f9abe26" x="187.134985" y="200.9466" style="fill: #ffff00; stroke: #ff0000"/>
     <use xlink:href="#mea6f9abe26" x="189.313874" y="140.604705" style="fill: #ffff00; stroke: #ff0000"/>
     <use xlink:href="#mea6f9abe26" x="191.492764" y="194.982458" style="fill: #ffff00; stroke: #ff0000"/>
     <use xlink:href="#mea6f9abe26" x="193.671653" y="188.345181" style="fill: #ffff00; stroke: #ff0000"/>
     <use xlink:href="#mea6f9abe26" x="195.850543" y="220.980031" style="fill: #ffff00; stroke: #ff0000"/>
     <use xlink:href="#mea6f9abe26" x="198.029433" y="223.637882" style="fill: #ffff00; stroke: #ff0000"/>
     <use xlink:href="#mea6f9abe26" x="200.208322" y="220.386856" style="fill: #ffff00; stroke: #ff0000"/>
     <use xlink:href="#mea6f9abe26" x="202.387212" y="205.389021" style="fill: #ffff00; stroke: #ff0000"/>
     <use xlink:href="#mea6f9abe26" x="204.566101" y="191.802929" style="fill: #ffff00; stroke: #ff0000"/>
     <use xlink:href="#mea6f9abe26" x="206.744991" y="167.320574" style="fill: #ffff00; stroke: #ff0000"/>
     <use xlink:href="#mea6f9abe26" x="208.92388" y="228.883033" style="fill: #ffff00; stroke: #ff0000"/>
     <use xlink:href="#mea6f9abe26" x="211.10277" y="217.58996" style="fill: #ffff00; stroke: #ff0000"/>
     <use xlink:href="#mea6f9abe26" x="213.28166" y="162.81893" style="fill: #ffff00; stroke: #ff0000"/>
     <use xlink:href="#mea6f9abe26" x="215.460549" y="184.848882" style="fill: #ffff00; stroke: #ff0000"/>
     <use xlink:href="#mea6f9abe26" x="217.639439" y="195.070199" style="fill: #ffff00; stroke: #ff0000"/>
     <use xlink:href="#mea6f9abe26" x="219.818328" y="137.176391" style="fill: #ffff00; stroke: #ff0000"/>
     <use xlink:href="#mea6f9abe26" x="221.997218" y="204.800611" style="fill: #ffff00; stroke: #ff0000"/>
     <use xlink:href="#mea6f9abe26" x="224.176107" y="134.188227" style="fill: #ffff00; stroke: #ff0000"/>
     <use xlink:href="#mea6f9abe26" x="226.354997" y="156.82483" style="fill: #ffff00; stroke: #ff0000"/>
     <use xlink:href="#mea6f9abe26" x="228.533887" y="194.121881" style="fill: #ffff00; stroke: #ff0000"/>
     <use xlink:href="#mea6f9abe26" x="230.712776" y="191.056299" style="fill: #ffff00; stroke: #ff0000"/>
     <use xlink:href="#mea6f9abe26" x="232.891666" y="176.620555" style="fill: #ffff00; stroke: #ff0000"/>
     <use xlink:href="#mea6f9abe26" x="235.070555" y="148.060382" style="fill: #ffff00; stroke: #ff0000"/>
     <use xlink:href="#mea6f9abe26" x="237.249445" y="165.084007" style="fill: #ffff00; stroke: #ff0000"/>
     <use xlink:href="#mea6f9abe26" x="239.428334" y="170.308816" style="fill: #ffff00; stroke: #ff0000"/>
     <use xlink:href="#mea6f9abe26" x="241.607224" y="138.394355" style="fill: #ffff00; stroke: #ff0000"/>
     <use xlink:href="#mea6f9abe26" x="243.786113" y="151.099579" style="fill: #ffff00; stroke: #ff0000"/>
     <use xlink:href="#mea6f9abe26" x="245.965003" y="174.336126" style="fill: #ffff00; stroke: #ff0000"/>
     <use xlink:href="#mea6f9abe26" x="248.143893" y="138.353669" style="fill: #ffff00; stroke: #ff0000"/>
     <use xlink:href="#mea6f9abe26" x="250.322782" y="122.836492" style="fill: #ffff00; stroke: #ff0000"/>
     <use xlink:href="#mea6f9abe26" x="252.501672" y="174.093028" style="fill: #ffff00; stroke: #ff0000"/>
     <use xlink:href="#mea6f9abe26" x="254.680561" y="148.766399" style="fill: #ffff00; stroke: #ff0000"/>
     <use xlink:href="#mea6f9abe26" x="256.859451" y="178.065747" style="fill: #ffff00; stroke: #ff0000"/>
     <use xlink:href="#mea6f9abe26" x="259.03834" y="128.250116" style="fill: #ffff00; stroke: #ff0000"/>
     <use xlink:href="#mea6f9abe26" x="261.21723" y="143.894408" style="fill: #ffff00; stroke: #ff0000"/>
     <use xlink:href="#mea6f9abe26" x="263.39612" y="135.419679" style="fill: #ffff00; stroke: #ff0000"/>
     <use xlink:href="#mea6f9abe26" x="265.575009" y="126.701218" style="fill: #ffff00; stroke: #ff0000"/>
     <use xlink:href="#mea6f9abe26" x="267.753899" y="104.996754" style="fill: #ffff00; stroke: #ff0000"/>
     <use xlink:href="#mea6f9abe26" x="269.932788" y="130.585401" style="fill: #ffff00; stroke: #ff0000"/>
     <use xlink:href="#mea6f9abe26" x="272.111678" y="168.680897" style="fill: #ffff00; stroke: #ff0000"/>
     <use xlink:href="#mea6f9abe26" x="274.290567" y="124.198298" style="fill: #ffff00; stroke: #ff0000"/>
     <use xlink:href="#mea6f9abe26" x="276.469457" y="115.145287" style="fill: #ffff00; stroke: #ff0000"/>
     <use xlink:href="#mea6f9abe26" x="278.648347" y="157.832005" style="fill: #ffff00; stroke: #ff0000"/>
     <use xlink:href="#mea6f9abe26" x="280.827236" y="82.855113" style="fill: #ffff00; stroke: #ff0000"/>
     <use xlink:href="#mea6f9abe26" x="283.006126" y="154.788136" style="fill: #ffff00; stroke: #ff0000"/>
     <use xlink:href="#mea6f9abe26" x="285.185015" y="116.257072" style="fill: #ffff00; stroke: #ff0000"/>
     <use xlink:href="#mea6f9abe26" x="287.363905" y="145.125531" style="fill: #ffff00; stroke: #ff0000"/>
     <use xlink:href="#mea6f9abe26" x="289.542794" y="102.22724" style="fill: #ffff00; stroke: #ff0000"/>
     <use xlink:href="#mea6f9abe26" x="291.721684" y="143.369473" style="fill: #ffff00; stroke: #ff0000"/>
     <use xlink:href="#mea6f9abe26" x="293.900574" y="154.101824" style="fill: #ffff00; stroke: #ff0000"/>
     <use xlink:href="#mea6f9abe26" x="296.079463" y="111.373255" style="fill: #ffff00; stroke: #ff0000"/>
     <use xlink:href="#mea6f9abe26" x="298.258353" y="145.295365" style="fill: #ffff00; stroke: #ff0000"/>
     <use xlink:href="#mea6f9abe26" x="300.437242" y="112.68439" style="fill: #ffff00; stroke: #ff0000"/>
     <use xlink:href="#mea6f9abe26" x="302.616132" y="90.09776" style="fill: #ffff00; stroke: #ff0000"/>
     <use xlink:href="#mea6f9abe26" x="304.795021" y="125.136851" style="fill: #ffff00; stroke: #ff0000"/>
     <use xlink:href="#mea6f9abe26" x="306.973911" y="100.209422" style="fill: #ffff00; stroke: #ff0000"/>
     <use xlink:href="#mea6f9abe26" x="309.1528" y="113.095951" style="fill: #ffff00; stroke: #ff0000"/>
     <use xlink:href="#mea6f9abe26" x="311.33169" y="105.817701" style="fill: #ffff00; stroke: #ff0000"/>
     <use xlink:href="#mea6f9abe26" x="313.51058" y="99.808604" style="fill: #ffff00; stroke: #ff0000"/>
     <use xlink:href="#mea6f9abe26" x="315.689469" y="156.125009" style="fill: #ffff00; stroke: #ff0000"/>
     <use xlink:href="#mea6f9abe26" x="317.868359" y="108.356481" style="fill: #ffff00; stroke: #ff0000"/>
     <use xlink:href="#mea6f9abe26" x="320.047248" y="91.968841" style="fill: #ffff00; stroke: #ff0000"/>
     <use xlink:href="#mea6f9abe26" x="322.226138" y="104.32007" style="fill: #ffff00; stroke: #ff0000"/>
     <use xlink:href="#mea6f9abe26" x="324.405027" y="95.878164" style="fill: #ffff00; stroke: #ff0000"/>
     <use xlink:href="#mea6f9abe26" x="326.583917" y="135.547503" style="fill: #ffff00; stroke: #ff0000"/>
     <use xlink:href="#mea6f9abe26" x="328.762807" y="81.462589" style="fill: #ffff00; stroke: #ff0000"/>
     <use xlink:href="#mea6f9abe26" x="330.941696" y="70.792474" style="fill: #ffff00; stroke: #ff0000"/>
     <use xlink:href="#mea6f9abe26" x="333.120586" y="86.256169" style="fill: #ffff00; stroke: #ff0000"/>
     <use xlink:href="#mea6f9abe26" x="335.299475" y="66.727144" style="fill: #ffff00; stroke: #ff0000"/>
     <use xlink:href="#mea6f9abe26" x="337.478365" y="121.373012" style="fill: #ffff00; stroke: #ff0000"/>
     <use xlink:href="#mea6f9abe26" x="339.657254" y="90.875887" style="fill: #ffff00; stroke: #ff0000"/>
     <use xlink:href="#mea6f9abe26" x="341.836144" y="111.499283" style="fill: #ffff00; stroke: #ff0000"/>
     <use xlink:href="#mea6f9abe26" x="344.015034" y="69.28867" style="fill: #ffff00; stroke: #ff0000"/>
     <use xlink:href="#mea6f9abe26" x="346.193923" y="88.775335" style="fill: #ffff00; stroke: #ff0000"/>
     <use xlink:href="#mea6f9abe26" x="348.372813" y="88.473446" style="fill: #ffff00; stroke: #ff0000"/>
     <use xlink:href="#mea6f9abe26" x="350.551702" y="90.897385" style="fill: #ffff00; stroke: #ff0000"/>
     <use xlink:href="#mea6f9abe26" x="352.730592" y="85.203149" style="fill: #ffff00; stroke: #ff0000"/>
     <use xlink:href="#mea6f9abe26" x="354.909481" y="89.155153" style="fill: #ffff00; stroke: #ff0000"/>
     <use xlink:href="#mea6f9abe26" x="357.088371" y="83.591535" style="fill: #ffff00; stroke: #ff0000"/>
     <use xlink:href="#mea6f9abe26" x="359.267261" y="78.364965" style="fill: #ffff00; stroke: #ff0000"/>
     <use xlink:href="#mea6f9abe26" x="361.44615" y="80.903765" style="fill: #ffff00; stroke: #ff0000"/>
     <use xlink:href="#mea6f9abe26" x="363.62504" y="80.544896" style="fill: #ffff00; stroke: #ff0000"/>
     <use xlink:href="#mea6f9abe26" x="365.803929" y="78.08128" style="fill: #ffff00; stroke: #ff0000"/>
     <use xlink:href="#mea6f9abe26" x="367.982819" y="75.86621" style="fill: #ffff00; stroke: #ff0000"/>
     <use xlink:href="#mea6f9abe26" x="370.161708" y="73.740174" style="fill: #ffff00; stroke: #ff0000"/>
     <use xlink:href="#mea6f9abe26" x="372.340598" y="75.649503" style="fill: #ffff00; stroke: #ff0000"/>
     <use xlink:href="#mea6f9abe26" x="374.519487" y="69.892653" style="fill: #ffff00; stroke: #ff0000"/>
     <use xlink:href="#mea6f9abe26" x="376.698377" y="70.333404" style="fill: #ffff00; stroke: #ff0000"/>
     <use xlink:href="#mea6f9abe26" x="378.877267" y="63.789301" style="fill: #ffff00; stroke: #ff0000"/>
     <use xlink:href="#mea6f9abe26" x="381.056156" y="72.054485" style="fill: #ffff00; stroke: #ff0000"/>
     <use xlink:href="#mea6f9abe26" x="383.235046" y="69.857429" style="fill: #ffff00; stroke: #ff0000"/>
     <use xlink:href="#mea6f9abe26" x="385.413935" y="60.425071" style="fill: #ffff00; stroke: #ff0000"/>
     <use xlink:href="#mea6f9abe26" x="387.592825" y="59.094011" style="fill: #ffff00; stroke: #ff0000"/>
     <use xlink:href="#mea6f9abe26" x="389.771714" y="59.558728" style="fill: #ffff00; stroke: #ff0000"/>
     <use xlink:href="#mea6f9abe26" x="391.950604" y="61.782717" style="fill: #ffff00; stroke: #ff0000"/>
     <use xlink:href="#mea6f9abe26" x="394.129494" y="55.479031" style="fill: #ffff00; stroke: #ff0000"/>
     <use xlink:href="#mea6f9abe26" x="396.308383" y="54.207707" style="fill: #ffff00; stroke: #ff0000"/>
     <use xlink:href="#mea6f9abe26" x="398.487273" y="53.568" style="fill: #ffff00; stroke: #ff0000"/>
    </g>
   </g>
   <g id="matplotlib.axis_1">
    <g id="xtick_1">
     <g id="line2d_1">
      <path d="M 73.832727 307.584 
L 73.832727 41.472 
" clip-path="url(#pfb9ead00b9)" style="fill: none; stroke: #b0b0b0; stroke-width: 0.8; stroke-linecap: square"/>
     </g>
     <g id="line2d_2">
      <defs>
       <path id="m27be4d4d82" d="M 0 0 
L 0 3.5 
" style="stroke: #000000; stroke-width: 0.8"/>
      </defs>
      <g>
       <use xlink:href="#m27be4d4d82" x="73.832727" y="307.584" style="stroke: #000000; stroke-width: 0.8"/>
      </g>
     </g>
     <g id="text_1">
      <!-- 0 -->
      <g transform="translate(70.651477 322.182437) scale(0.1 -0.1)">
       <defs>
        <path id="DejaVuSans-30" d="M 2034 4250 
Q 1547 4250 1301 3770 
Q 1056 3291 1056 2328 
Q 1056 1369 1301 889 
Q 1547 409 2034 409 
Q 2525 409 2770 889 
Q 3016 1369 3016 2328 
Q 3016 3291 2770 3770 
Q 2525 4250 2034 4250 
z
M 2034 4750 
Q 2819 4750 3233 4129 
Q 3647 3509 3647 2328 
Q 3647 1150 3233 529 
Q 2819 -91 2034 -91 
Q 1250 -91 836 529 
Q 422 1150 422 2328 
Q 422 3509 836 4129 
Q 1250 4750 2034 4750 
z
" transform="scale(0.015625)"/>
       </defs>
       <use xlink:href="#DejaVuSans-30"/>
      </g>
     </g>
    </g>
    <g id="xtick_2">
     <g id="line2d_3">
      <path d="M 117.410519 307.584 
L 117.410519 41.472 
" clip-path="url(#pfb9ead00b9)" style="fill: none; stroke: #b0b0b0; stroke-width: 0.8; stroke-linecap: square"/>
     </g>
     <g id="line2d_4">
      <g>
       <use xlink:href="#m27be4d4d82" x="117.410519" y="307.584" style="stroke: #000000; stroke-width: 0.8"/>
      </g>
     </g>
     <g id="text_2">
      <!-- 20 -->
      <g transform="translate(111.048019 322.182437) scale(0.1 -0.1)">
       <defs>
        <path id="DejaVuSans-32" d="M 1228 531 
L 3431 531 
L 3431 0 
L 469 0 
L 469 531 
Q 828 903 1448 1529 
Q 2069 2156 2228 2338 
Q 2531 2678 2651 2914 
Q 2772 3150 2772 3378 
Q 2772 3750 2511 3984 
Q 2250 4219 1831 4219 
Q 1534 4219 1204 4116 
Q 875 4013 500 3803 
L 500 4441 
Q 881 4594 1212 4672 
Q 1544 4750 1819 4750 
Q 2544 4750 2975 4387 
Q 3406 4025 3406 3419 
Q 3406 3131 3298 2873 
Q 3191 2616 2906 2266 
Q 2828 2175 2409 1742 
Q 1991 1309 1228 531 
z
" transform="scale(0.015625)"/>
       </defs>
       <use xlink:href="#DejaVuSans-32"/>
       <use xlink:href="#DejaVuSans-30" x="63.623047"/>
      </g>
     </g>
    </g>
    <g id="xtick_3">
     <g id="line2d_5">
      <path d="M 160.98831 307.584 
L 160.98831 41.472 
" clip-path="url(#pfb9ead00b9)" style="fill: none; stroke: #b0b0b0; stroke-width: 0.8; stroke-linecap: square"/>
     </g>
     <g id="line2d_6">
      <g>
       <use xlink:href="#m27be4d4d82" x="160.98831" y="307.584" style="stroke: #000000; stroke-width: 0.8"/>
      </g>
     </g>
     <g id="text_3">
      <!-- 40 -->
      <g transform="translate(154.62581 322.182437) scale(0.1 -0.1)">
       <defs>
        <path id="DejaVuSans-34" d="M 2419 4116 
L 825 1625 
L 2419 1625 
L 2419 4116 
z
M 2253 4666 
L 3047 4666 
L 3047 1625 
L 3713 1625 
L 3713 1100 
L 3047 1100 
L 3047 0 
L 2419 0 
L 2419 1100 
L 313 1100 
L 313 1709 
L 2253 4666 
z
" transform="scale(0.015625)"/>
       </defs>
       <use xlink:href="#DejaVuSans-34"/>
       <use xlink:href="#DejaVuSans-30" x="63.623047"/>
      </g>
     </g>
    </g>
    <g id="xtick_4">
     <g id="line2d_7">
      <path d="M 204.566101 307.584 
L 204.566101 41.472 
" clip-path="url(#pfb9ead00b9)" style="fill: none; stroke: #b0b0b0; stroke-width: 0.8; stroke-linecap: square"/>
     </g>
     <g id="line2d_8">
      <g>
       <use xlink:href="#m27be4d4d82" x="204.566101" y="307.584" style="stroke: #000000; stroke-width: 0.8"/>
      </g>
     </g>
     <g id="text_4">
      <!-- 60 -->
      <g transform="translate(198.203601 322.182437) scale(0.1 -0.1)">
       <defs>
        <path id="DejaVuSans-36" d="M 2113 2584 
Q 1688 2584 1439 2293 
Q 1191 2003 1191 1497 
Q 1191 994 1439 701 
Q 1688 409 2113 409 
Q 2538 409 2786 701 
Q 3034 994 3034 1497 
Q 3034 2003 2786 2293 
Q 2538 2584 2113 2584 
z
M 3366 4563 
L 3366 3988 
Q 3128 4100 2886 4159 
Q 2644 4219 2406 4219 
Q 1781 4219 1451 3797 
Q 1122 3375 1075 2522 
Q 1259 2794 1537 2939 
Q 1816 3084 2150 3084 
Q 2853 3084 3261 2657 
Q 3669 2231 3669 1497 
Q 3669 778 3244 343 
Q 2819 -91 2113 -91 
Q 1303 -91 875 529 
Q 447 1150 447 2328 
Q 447 3434 972 4092 
Q 1497 4750 2381 4750 
Q 2619 4750 2861 4703 
Q 3103 4656 3366 4563 
z
" transform="scale(0.015625)"/>
       </defs>
       <use xlink:href="#DejaVuSans-36"/>
       <use xlink:href="#DejaVuSans-30" x="63.623047"/>
      </g>
     </g>
    </g>
    <g id="xtick_5">
     <g id="line2d_9">
      <path d="M 248.143893 307.584 
L 248.143893 41.472 
" clip-path="url(#pfb9ead00b9)" style="fill: none; stroke: #b0b0b0; stroke-width: 0.8; stroke-linecap: square"/>
     </g>
     <g id="line2d_10">
      <g>
       <use xlink:href="#m27be4d4d82" x="248.143893" y="307.584" style="stroke: #000000; stroke-width: 0.8"/>
      </g>
     </g>
     <g id="text_5">
      <!-- 80 -->
      <g transform="translate(241.781393 322.182437) scale(0.1 -0.1)">
       <defs>
        <path id="DejaVuSans-38" d="M 2034 2216 
Q 1584 2216 1326 1975 
Q 1069 1734 1069 1313 
Q 1069 891 1326 650 
Q 1584 409 2034 409 
Q 2484 409 2743 651 
Q 3003 894 3003 1313 
Q 3003 1734 2745 1975 
Q 2488 2216 2034 2216 
z
M 1403 2484 
Q 997 2584 770 2862 
Q 544 3141 544 3541 
Q 544 4100 942 4425 
Q 1341 4750 2034 4750 
Q 2731 4750 3128 4425 
Q 3525 4100 3525 3541 
Q 3525 3141 3298 2862 
Q 3072 2584 2669 2484 
Q 3125 2378 3379 2068 
Q 3634 1759 3634 1313 
Q 3634 634 3220 271 
Q 2806 -91 2034 -91 
Q 1263 -91 848 271 
Q 434 634 434 1313 
Q 434 1759 690 2068 
Q 947 2378 1403 2484 
z
M 1172 3481 
Q 1172 3119 1398 2916 
Q 1625 2713 2034 2713 
Q 2441 2713 2670 2916 
Q 2900 3119 2900 3481 
Q 2900 3844 2670 4047 
Q 2441 4250 2034 4250 
Q 1625 4250 1398 4047 
Q 1172 3844 1172 3481 
z
" transform="scale(0.015625)"/>
       </defs>
       <use xlink:href="#DejaVuSans-38"/>
       <use xlink:href="#DejaVuSans-30" x="63.623047"/>
      </g>
     </g>
    </g>
    <g id="xtick_6">
     <g id="line2d_11">
      <path d="M 291.721684 307.584 
L 291.721684 41.472 
" clip-path="url(#pfb9ead00b9)" style="fill: none; stroke: #b0b0b0; stroke-width: 0.8; stroke-linecap: square"/>
     </g>
     <g id="line2d_12">
      <g>
       <use xlink:href="#m27be4d4d82" x="291.721684" y="307.584" style="stroke: #000000; stroke-width: 0.8"/>
      </g>
     </g>
     <g id="text_6">
      <!-- 100 -->
      <g transform="translate(282.177934 322.182437) scale(0.1 -0.1)">
       <defs>
        <path id="DejaVuSans-31" d="M 794 531 
L 1825 531 
L 1825 4091 
L 703 3866 
L 703 4441 
L 1819 4666 
L 2450 4666 
L 2450 531 
L 3481 531 
L 3481 0 
L 794 0 
L 794 531 
z
" transform="scale(0.015625)"/>
       </defs>
       <use xlink:href="#DejaVuSans-31"/>
       <use xlink:href="#DejaVuSans-30" x="63.623047"/>
       <use xlink:href="#DejaVuSans-30" x="127.246094"/>
      </g>
     </g>
    </g>
    <g id="xtick_7">
     <g id="line2d_13">
      <path d="M 335.299475 307.584 
L 335.299475 41.472 
" clip-path="url(#pfb9ead00b9)" style="fill: none; stroke: #b0b0b0; stroke-width: 0.8; stroke-linecap: square"/>
     </g>
     <g id="line2d_14">
      <g>
       <use xlink:href="#m27be4d4d82" x="335.299475" y="307.584" style="stroke: #000000; stroke-width: 0.8"/>
      </g>
     </g>
     <g id="text_7">
      <!-- 120 -->
      <g transform="translate(325.755725 322.182437) scale(0.1 -0.1)">
       <use xlink:href="#DejaVuSans-31"/>
       <use xlink:href="#DejaVuSans-32" x="63.623047"/>
       <use xlink:href="#DejaVuSans-30" x="127.246094"/>
      </g>
     </g>
    </g>
    <g id="xtick_8">
     <g id="line2d_15">
      <path d="M 378.877267 307.584 
L 378.877267 41.472 
" clip-path="url(#pfb9ead00b9)" style="fill: none; stroke: #b0b0b0; stroke-width: 0.8; stroke-linecap: square"/>
     </g>
     <g id="line2d_16">
      <g>
       <use xlink:href="#m27be4d4d82" x="378.877267" y="307.584" style="stroke: #000000; stroke-width: 0.8"/>
      </g>
     </g>
     <g id="text_8">
      <!-- 140 -->
      <g transform="translate(369.333517 322.182437) scale(0.1 -0.1)">
       <use xlink:href="#DejaVuSans-31"/>
       <use xlink:href="#DejaVuSans-34" x="63.623047"/>
       <use xlink:href="#DejaVuSans-30" x="127.246094"/>
      </g>
     </g>
    </g>
    <g id="text_9">
     <!-- feature 01 -->
     <g transform="translate(210.159219 335.860562) scale(0.1 -0.1)">
      <defs>
       <path id="DejaVuSans-66" d="M 2375 4863 
L 2375 4384 
L 1825 4384 
Q 1516 4384 1395 4259 
Q 1275 4134 1275 3809 
L 1275 3500 
L 2222 3500 
L 2222 3053 
L 1275 3053 
L 1275 0 
L 697 0 
L 697 3053 
L 147 3053 
L 147 3500 
L 697 3500 
L 697 3744 
Q 697 4328 969 4595 
Q 1241 4863 1831 4863 
L 2375 4863 
z
" transform="scale(0.015625)"/>
       <path id="DejaVuSans-65" d="M 3597 1894 
L 3597 1613 
L 953 1613 
Q 991 1019 1311 708 
Q 1631 397 2203 397 
Q 2534 397 2845 478 
Q 3156 559 3463 722 
L 3463 178 
Q 3153 47 2828 -22 
Q 2503 -91 2169 -91 
Q 1331 -91 842 396 
Q 353 884 353 1716 
Q 353 2575 817 3079 
Q 1281 3584 2069 3584 
Q 2775 3584 3186 3129 
Q 3597 2675 3597 1894 
z
M 3022 2063 
Q 3016 2534 2758 2815 
Q 2500 3097 2075 3097 
Q 1594 3097 1305 2825 
Q 1016 2553 972 2059 
L 3022 2063 
z
" transform="scale(0.015625)"/>
       <path id="DejaVuSans-61" d="M 2194 1759 
Q 1497 1759 1228 1600 
Q 959 1441 959 1056 
Q 959 750 1161 570 
Q 1363 391 1709 391 
Q 2188 391 2477 730 
Q 2766 1069 2766 1631 
L 2766 1759 
L 2194 1759 
z
M 3341 1997 
L 3341 0 
L 2766 0 
L 2766 531 
Q 2569 213 2275 61 
Q 1981 -91 1556 -91 
Q 1019 -91 701 211 
Q 384 513 384 1019 
Q 384 1609 779 1909 
Q 1175 2209 1959 2209 
L 2766 2209 
L 2766 2266 
Q 2766 2663 2505 2880 
Q 2244 3097 1772 3097 
Q 1472 3097 1187 3025 
Q 903 2953 641 2809 
L 641 3341 
Q 956 3463 1253 3523 
Q 1550 3584 1831 3584 
Q 2591 3584 2966 3190 
Q 3341 2797 3341 1997 
z
" transform="scale(0.015625)"/>
       <path id="DejaVuSans-74" d="M 1172 4494 
L 1172 3500 
L 2356 3500 
L 2356 3053 
L 1172 3053 
L 1172 1153 
Q 1172 725 1289 603 
Q 1406 481 1766 481 
L 2356 481 
L 2356 0 
L 1766 0 
Q 1100 0 847 248 
Q 594 497 594 1153 
L 594 3053 
L 172 3053 
L 172 3500 
L 594 3500 
L 594 4494 
L 1172 4494 
z
" transform="scale(0.015625)"/>
       <path id="DejaVuSans-75" d="M 544 1381 
L 544 3500 
L 1119 3500 
L 1119 1403 
Q 1119 906 1312 657 
Q 1506 409 1894 409 
Q 2359 409 2629 706 
Q 2900 1003 2900 1516 
L 2900 3500 
L 3475 3500 
L 3475 0 
L 2900 0 
L 2900 538 
Q 2691 219 2414 64 
Q 2138 -91 1772 -91 
Q 1169 -91 856 284 
Q 544 659 544 1381 
z
M 1991 3584 
L 1991 3584 
z
" transform="scale(0.015625)"/>
       <path id="DejaVuSans-72" d="M 2631 2963 
Q 2534 3019 2420 3045 
Q 2306 3072 2169 3072 
Q 1681 3072 1420 2755 
Q 1159 2438 1159 1844 
L 1159 0 
L 581 0 
L 581 3500 
L 1159 3500 
L 1159 2956 
Q 1341 3275 1631 3429 
Q 1922 3584 2338 3584 
Q 2397 3584 2469 3576 
Q 2541 3569 2628 3553 
L 2631 2963 
z
" transform="scale(0.015625)"/>
       <path id="DejaVuSans-20" transform="scale(0.015625)"/>
      </defs>
      <use xlink:href="#DejaVuSans-66"/>
      <use xlink:href="#DejaVuSans-65" x="35.205078"/>
      <use xlink:href="#DejaVuSans-61" x="96.728516"/>
      <use xlink:href="#DejaVuSans-74" x="158.007812"/>
      <use xlink:href="#DejaVuSans-75" x="197.216797"/>
      <use xlink:href="#DejaVuSans-72" x="260.595703"/>
      <use xlink:href="#DejaVuSans-65" x="299.458984"/>
      <use xlink:href="#DejaVuSans-20" x="360.982422"/>
      <use xlink:href="#DejaVuSans-30" x="392.769531"/>
      <use xlink:href="#DejaVuSans-31" x="456.392578"/>
     </g>
    </g>
   </g>
   <g id="matplotlib.axis_2">
    <g id="ytick_1">
     <g id="line2d_17">
      <path d="M 57.6 295.488 
L 414.72 295.488 
" clip-path="url(#pfb9ead00b9)" style="fill: none; stroke: #b0b0b0; stroke-width: 0.8; stroke-linecap: square"/>
     </g>
     <g id="line2d_18">
      <defs>
       <path id="m6f2629dde0" d="M 0 0 
L -3.5 0 
" style="stroke: #000000; stroke-width: 0.8"/>
      </defs>
      <g>
       <use xlink:href="#m6f2629dde0" x="57.6" y="295.488" style="stroke: #000000; stroke-width: 0.8"/>
      </g>
     </g>
     <g id="text_10">
      <!-- 0 -->
      <g transform="translate(44.2375 299.287219) scale(0.1 -0.1)">
       <use xlink:href="#DejaVuSans-30"/>
      </g>
     </g>
    </g>
    <g id="ytick_2">
     <g id="line2d_19">
      <path d="M 57.6 263.126429 
L 414.72 263.126429 
" clip-path="url(#pfb9ead00b9)" style="fill: none; stroke: #b0b0b0; stroke-width: 0.8; stroke-linecap: square"/>
     </g>
     <g id="line2d_20">
      <g>
       <use xlink:href="#m6f2629dde0" x="57.6" y="263.126429" style="stroke: #000000; stroke-width: 0.8"/>
      </g>
     </g>
     <g id="text_11">
      <!-- 20 -->
      <g transform="translate(37.875 266.925647) scale(0.1 -0.1)">
       <use xlink:href="#DejaVuSans-32"/>
       <use xlink:href="#DejaVuSans-30" x="63.623047"/>
      </g>
     </g>
    </g>
    <g id="ytick_3">
     <g id="line2d_21">
      <path d="M 57.6 230.764857 
L 414.72 230.764857 
" clip-path="url(#pfb9ead00b9)" style="fill: none; stroke: #b0b0b0; stroke-width: 0.8; stroke-linecap: square"/>
     </g>
     <g id="line2d_22">
      <g>
       <use xlink:href="#m6f2629dde0" x="57.6" y="230.764857" style="stroke: #000000; stroke-width: 0.8"/>
      </g>
     </g>
     <g id="text_12">
      <!-- 40 -->
      <g transform="translate(37.875 234.564076) scale(0.1 -0.1)">
       <use xlink:href="#DejaVuSans-34"/>
       <use xlink:href="#DejaVuSans-30" x="63.623047"/>
      </g>
     </g>
    </g>
    <g id="ytick_4">
     <g id="line2d_23">
      <path d="M 57.6 198.403286 
L 414.72 198.403286 
" clip-path="url(#pfb9ead00b9)" style="fill: none; stroke: #b0b0b0; stroke-width: 0.8; stroke-linecap: square"/>
     </g>
     <g id="line2d_24">
      <g>
       <use xlink:href="#m6f2629dde0" x="57.6" y="198.403286" style="stroke: #000000; stroke-width: 0.8"/>
      </g>
     </g>
     <g id="text_13">
      <!-- 60 -->
      <g transform="translate(37.875 202.202505) scale(0.1 -0.1)">
       <use xlink:href="#DejaVuSans-36"/>
       <use xlink:href="#DejaVuSans-30" x="63.623047"/>
      </g>
     </g>
    </g>
    <g id="ytick_5">
     <g id="line2d_25">
      <path d="M 57.6 166.041715 
L 414.72 166.041715 
" clip-path="url(#pfb9ead00b9)" style="fill: none; stroke: #b0b0b0; stroke-width: 0.8; stroke-linecap: square"/>
     </g>
     <g id="line2d_26">
      <g>
       <use xlink:href="#m6f2629dde0" x="57.6" y="166.041715" style="stroke: #000000; stroke-width: 0.8"/>
      </g>
     </g>
     <g id="text_14">
      <!-- 80 -->
      <g transform="translate(37.875 169.840933) scale(0.1 -0.1)">
       <use xlink:href="#DejaVuSans-38"/>
       <use xlink:href="#DejaVuSans-30" x="63.623047"/>
      </g>
     </g>
    </g>
    <g id="ytick_6">
     <g id="line2d_27">
      <path d="M 57.6 133.680143 
L 414.72 133.680143 
" clip-path="url(#pfb9ead00b9)" style="fill: none; stroke: #b0b0b0; stroke-width: 0.8; stroke-linecap: square"/>
     </g>
     <g id="line2d_28">
      <g>
       <use xlink:href="#m6f2629dde0" x="57.6" y="133.680143" style="stroke: #000000; stroke-width: 0.8"/>
      </g>
     </g>
     <g id="text_15">
      <!-- 100 -->
      <g transform="translate(31.5125 137.479362) scale(0.1 -0.1)">
       <use xlink:href="#DejaVuSans-31"/>
       <use xlink:href="#DejaVuSans-30" x="63.623047"/>
       <use xlink:href="#DejaVuSans-30" x="127.246094"/>
      </g>
     </g>
    </g>
    <g id="ytick_7">
     <g id="line2d_29">
      <path d="M 57.6 101.318572 
L 414.72 101.318572 
" clip-path="url(#pfb9ead00b9)" style="fill: none; stroke: #b0b0b0; stroke-width: 0.8; stroke-linecap: square"/>
     </g>
     <g id="line2d_30">
      <g>
       <use xlink:href="#m6f2629dde0" x="57.6" y="101.318572" style="stroke: #000000; stroke-width: 0.8"/>
      </g>
     </g>
     <g id="text_16">
      <!-- 120 -->
      <g transform="translate(31.5125 105.117791) scale(0.1 -0.1)">
       <use xlink:href="#DejaVuSans-31"/>
       <use xlink:href="#DejaVuSans-32" x="63.623047"/>
       <use xlink:href="#DejaVuSans-30" x="127.246094"/>
      </g>
     </g>
    </g>
    <g id="ytick_8">
     <g id="line2d_31">
      <path d="M 57.6 68.957001 
L 414.72 68.957001 
" clip-path="url(#pfb9ead00b9)" style="fill: none; stroke: #b0b0b0; stroke-width: 0.8; stroke-linecap: square"/>
     </g>
     <g id="line2d_32">
      <g>
       <use xlink:href="#m6f2629dde0" x="57.6" y="68.957001" style="stroke: #000000; stroke-width: 0.8"/>
      </g>
     </g>
     <g id="text_17">
      <!-- 140 -->
      <g transform="translate(31.5125 72.756219) scale(0.1 -0.1)">
       <use xlink:href="#DejaVuSans-31"/>
       <use xlink:href="#DejaVuSans-34" x="63.623047"/>
       <use xlink:href="#DejaVuSans-30" x="127.246094"/>
      </g>
     </g>
    </g>
    <g id="text_18">
     <!-- feature 02 -->
     <g transform="translate(25.432812 200.528781) rotate(-90) scale(0.1 -0.1)">
      <use xlink:href="#DejaVuSans-66"/>
      <use xlink:href="#DejaVuSans-65" x="35.205078"/>
      <use xlink:href="#DejaVuSans-61" x="96.728516"/>
      <use xlink:href="#DejaVuSans-74" x="158.007812"/>
      <use xlink:href="#DejaVuSans-75" x="197.216797"/>
      <use xlink:href="#DejaVuSans-72" x="260.595703"/>
      <use xlink:href="#DejaVuSans-65" x="299.458984"/>
      <use xlink:href="#DejaVuSans-20" x="360.982422"/>
      <use xlink:href="#DejaVuSans-30" x="392.769531"/>
      <use xlink:href="#DejaVuSans-32" x="456.392578"/>
     </g>
    </g>
   </g>
   <g id="line2d_33">
    <path d="M 73.832727 295.488 
L 398.487273 54.394294 
L 398.487273 54.394294 
" clip-path="url(#pfb9ead00b9)" style="fill: none; stroke-dasharray: 5.55,2.4; stroke-dashoffset: 0; stroke: #000000; stroke-width: 1.5"/>
   </g>
   <g id="line2d_34">
    <path d="M 204.566101 101.318572 
L 291.721684 230.764857 
" clip-path="url(#pfb9ead00b9)" style="fill: none; stroke-dasharray: 5.55,2.4; stroke-dashoffset: 0; stroke: #0000ff; stroke-width: 1.5"/>
   </g>
   <g id="patch_3">
    <path d="M 57.6 307.584 
L 57.6 41.472 
" style="fill: none; stroke: #000000; stroke-width: 0.8; stroke-linejoin: miter; stroke-linecap: square"/>
   </g>
   <g id="patch_4">
    <path d="M 414.72 307.584 
L 414.72 41.472 
" style="fill: none; stroke: #000000; stroke-width: 0.8; stroke-linejoin: miter; stroke-linecap: square"/>
   </g>
   <g id="patch_5">
    <path d="M 57.6 307.584 
L 414.72 307.584 
" style="fill: none; stroke: #000000; stroke-width: 0.8; stroke-linejoin: miter; stroke-linecap: square"/>
   </g>
   <g id="patch_6">
    <path d="M 57.6 41.472 
L 414.72 41.472 
" style="fill: none; stroke: #000000; stroke-width: 0.8; stroke-linejoin: miter; stroke-linecap: square"/>
   </g>
   <g id="legend_1">
    <g id="patch_7">
     <path d="M 64.6 78.82825 
L 115.975 78.82825 
Q 117.975 78.82825 117.975 76.82825 
L 117.975 48.472 
Q 117.975 46.472 115.975 46.472 
L 64.6 46.472 
Q 62.6 46.472 62.6 48.472 
L 62.6 76.82825 
Q 62.6 78.82825 64.6 78.82825 
z
" style="fill: #ffffff; opacity: 0.8; stroke: #cccccc; stroke-linejoin: miter"/>
    </g>
    <g id="line2d_35">
     <path d="M 66.6 54.570437 
L 76.6 54.570437 
L 86.6 54.570437 
" style="fill: none; stroke-dasharray: 5.55,2.4; stroke-dashoffset: 0; stroke: #000000; stroke-width: 1.5"/>
    </g>
    <g id="text_19">
     <!-- PC1 -->
     <g transform="translate(94.6 58.070437) scale(0.1 -0.1)">
      <defs>
       <path id="DejaVuSans-50" d="M 1259 4147 
L 1259 2394 
L 2053 2394 
Q 2494 2394 2734 2622 
Q 2975 2850 2975 3272 
Q 2975 3691 2734 3919 
Q 2494 4147 2053 4147 
L 1259 4147 
z
M 628 4666 
L 2053 4666 
Q 2838 4666 3239 4311 
Q 3641 3956 3641 3272 
Q 3641 2581 3239 2228 
Q 2838 1875 2053 1875 
L 1259 1875 
L 1259 0 
L 628 0 
L 628 4666 
z
" transform="scale(0.015625)"/>
       <path id="DejaVuSans-43" d="M 4122 4306 
L 4122 3641 
Q 3803 3938 3442 4084 
Q 3081 4231 2675 4231 
Q 1875 4231 1450 3742 
Q 1025 3253 1025 2328 
Q 1025 1406 1450 917 
Q 1875 428 2675 428 
Q 3081 428 3442 575 
Q 3803 722 4122 1019 
L 4122 359 
Q 3791 134 3420 21 
Q 3050 -91 2638 -91 
Q 1578 -91 968 557 
Q 359 1206 359 2328 
Q 359 3453 968 4101 
Q 1578 4750 2638 4750 
Q 3056 4750 3426 4639 
Q 3797 4528 4122 4306 
z
" transform="scale(0.015625)"/>
      </defs>
      <use xlink:href="#DejaVuSans-50"/>
      <use xlink:href="#DejaVuSans-43" x="60.302734"/>
      <use xlink:href="#DejaVuSans-31" x="130.126953"/>
     </g>
    </g>
    <g id="line2d_36">
     <path d="M 66.6 69.248562 
L 76.6 69.248562 
L 86.6 69.248562 
" style="fill: none; stroke-dasharray: 5.55,2.4; stroke-dashoffset: 0; stroke: #0000ff; stroke-width: 1.5"/>
    </g>
    <g id="text_20">
     <!-- PC2 -->
     <g transform="translate(94.6 72.748562) scale(0.1 -0.1)">
      <use xlink:href="#DejaVuSans-50"/>
      <use xlink:href="#DejaVuSans-43" x="60.302734"/>
      <use xlink:href="#DejaVuSans-32" x="130.126953"/>
     </g>
    </g>
   </g>
  </g>
 </g>
 <defs>
  <clipPath id="pfb9ead00b9">
   <rect x="57.6" y="41.472" width="357.12" height="266.112"/>
  </clipPath>
 </defs>
</svg>
